{
  "accessors": [
    {
      "bufferView": 2,
      "componentType": 5126,
      "count": 2798,
      "max": [
        0.83175098896026611,
        0.48969000577926636,
        0.94990897178649902
      ],
      "min": [
        -0.99217498302459717,
        0.0015109999803826213,
        -0.94990897178649902
      ],
      "type": "VEC3"
    },
    {
      "bufferView": 2,
      "byteOffset": 33576,
      "componentType": 5126,
      "count": 2798,
      "max": [
        1,
        1,
        0.99999988079071045
      ],
      "min": [
        -1,
        -1,
        -0.99999988079071045
      ],
      "type": "VEC3"
    },
    {
      "bufferView": 1,
      "componentType": 5126,
      "count": 2798,
      "max": [
        1,
        1
      ],
      "min": [
        0,
        0
      ],
      "type": "VEC2"
    },
    {
      "bufferView": 0,
      "componentType": 5125,
      "count": 13440,
      "max": [
        2797
      ],
      "min": [
        0
      ],
      "type": "SCALAR"
    },
    {
      "bufferView": 2,
      "byteOffset": 67152,
      "componentType": 5126,
      "count": 8493,
      "max": [
        0.64433097839355469,
        1.4038009643554688,
        0.53721898794174194
      ],
      "min": [
        -0.60761398077011108,
        0.34690898656845093,
        -0.51982200145721436
      ],
      "type": "VEC3"
    },
    {
      "bufferView": 2,
      "byteOffset": 169068,
      "componentType": 5126,
      "count": 8493,
      "max": [
        0.99981743097305298,
        0.99962669610977173,
        0.99974817037582397
      ],
      "min": [
        -0.99987393617630005,
        -0.99979621171951294,
        -0.9999537467956543
      ],
      "type": "VEC3"
    },
    {
      "bufferView": 1,
      "byteOffset": 22384,
      "componentType": 5126,
      "count": 8493,
      "max": [
        0.82542002201080322,
        0.7547299861907959
      ],
      "min": [
        0.081611998379230499,
        0.058593999594449997
      ],
      "type": "VEC2"
    },
    {
      "bufferView": 0,
      "byteOffset": 53760,
      "componentType": 5125,
      "count": 49920,
      "max": [
        8492
      ],
      "min": [
        0
      ],
      "type": "SCALAR"
    },
    {
      "bufferView": 2,
      "byteOffset": 270984,
      "componentType": 5126,
      "count": 3700,
      "max": [
        0.67077797651290894,
        0.99413001537322998,
        0.79371500015258789
      ],
      "min": [
        -0.21451500058174133,
        0.43646600842475891,
        -0.68325501680374146
      ],
      "type": "VEC3"
    },
    {
      "bufferView": 2,
      "byteOffset": 315384,
      "componentType": 5126,
      "count": 3700,
      "max": [
        0.99957281351089478,
        0.99771887063980103,
        0.99934488534927368
      ],
      "min": [
        -0.99930012226104736,
        -0.99991810321807861,
        -0.99941468238830566
      ],
      "type": "VEC3"
    },
    {
      "bufferView": 1,
      "byteOffset": 90328,
      "componentType": 5126,
      "count": 3700,
      "max": [
        1.3238810300827026,
        1
      ],
      "min": [
        0,
        -0.075788997113704681
      ],
      "type": "VEC2"
    },
    {
      "bufferView": 0,
      "byteOffset": 253440,
      "componentType": 5125,
      "count": 19200,
      "max": [
        3699
      ],
      "min": [
        0
      ],
      "type": "SCALAR"
    },
    {
      "bufferView": 2,
      "byteOffset": 359784,
      "componentType": 5126,
      "count": 1538,
      "max": [
        0.35945999622344971,
        1.0409270524978638,
        0.40957298874855042
      ],
      "min": [
        0.20540599524974823,
        0.94502800703048706,
        0.27594798803329468
      ],
      "type": "VEC3"
    },
    {
      "bufferView": 2,
      "byteOffset": 378240,
      "componentType": 5126,
      "count": 1538,
      "max": [
        0.99935895204544067,
        1,
        0.99847507476806641
      ],
      "min": [
        -0.99935895204544067,
        -1,
        -0.99847507476806641
      ],
      "type": "VEC3"
    },
    {
      "bufferView": 1,
      "byteOffset": 119928,
      "componentType": 5126,
      "count": 1538,
      "max": [
        0.25,
        0
      ],
      "min": [
        0.25,
        0
      ],
      "type": "VEC2"
    },
    {
      "bufferView": 0,
      "byteOffset": 330240,
      "componentType": 5125,
      "count": 9216,
      "max": [
        1537
      ],
      "min": [
        0
      ],
      "type": "SCALAR"
    },
    {
      "bufferView": 2,
      "byteOffset": 396696,
      "componentType": 5126,
      "count": 921,
      "max": [
        0.3467479944229126,
        1.1030260324478149,
        0.41794499754905701
      ],
      "min": [
        0.22018200159072876,
        0.96704399585723877,
        0.29612499475479126
      ],
      "type": "VEC3"
    },
    {
      "bufferView": 2,
      "byteOffset": 407748,
      "componentType": 5126,
      "count": 921,
      "max": [
        0.9964679479598999,
        0.98825138807296753,
        0.98554378747940063
      ],
      "min": [
        -0.87941658496856689,
        -0.87907451391220093,
        -0.74310761690139771
      ],
      "type": "VEC3"
    },
    {
      "bufferView": 1,
      "byteOffset": 132232,
      "componentType": 5126,
      "count": 921,
      "max": [
        0.081611998379230499,
        0.074698001146316528
      ],
      "min": [
        0.081611998379230499,
        0.074697002768516541
      ],
      "type": "VEC2"
    },
    {
      "bufferView": 0,
      "byteOffset": 367104,
      "componentType": 5125,
      "count": 5376,
      "max": [
        920
      ],
      "min": [
        0
      ],
      "type": "SCALAR"
    }
  ],
  "asset": {
    "extras": {
      "author": "giaosame (https://sketchfab.com/qiaosen.chen)",
      "license": "COPYRIGHT TO giaosame",
      "source": "https://sketchfab.com/3d-models/model-2be5cfc0afca49d48f73fcc2381a9cac",
      "title": "Model"
    },
    "generator": "Sketchfab-9.52.0",
    "version": "2.0"
  },
  "bufferViews": [
    {
      "buffer": 0,
      "byteLength": 388608,
      "byteOffset": 0,
      "name": "floatBufferViews",
      "target": 34963
    },
    {
      "buffer": 0,
      "byteLength": 139600,
      "byteOffset": 388608,
      "byteStride": 8,
      "name": "floatBufferViews",
      "target": 34962
    },
    {
      "buffer": 0,
      "byteLength": 418800,
      "byteOffset": 528208,
      "byteStride": 12,
      "name": "floatBufferViews",
      "target": 34962
    }
  ],
  "buffers": [
    {
      "byteLength": 947008,
      "uri": "scene.bin"
    }
  ],
  "images": [
    {
      "uri": "textures/Kirby_baseColor.png"
    }
  ],
  "materials": [
    {
      "doubleSided": false,
      "emissiveFactor": [
        0,
        0,
        0
      ],
      "name": "Star",
      "pbrMetallicRoughness": {
        "baseColorFactor": [
          1,
          0.65098,
          0,
          1
        ],
        "metallicFactor": 0,
        "roughnessFactor": 1
      }
    },
    {
      "doubleSided": false,
      "emissiveFactor": [
        0,
        0,
        0
      ],
      "name": "Kirby",
      "pbrMetallicRoughness": {
        "baseColorFactor": [
          1,
          1,
          1,
          1
        ],
        "baseColorTexture": {
          "index": 0,
          "texCoord": 0
        },
        "metallicFactor": 0,
        "roughnessFactor": 1
      }
    },
    {
      "doubleSided": false,
      "emissiveFactor": [
        0,
        0,
        0
      ],
      "name": "Boots",
      "pbrMetallicRoughness": {
        "baseColorFactor": [
          1,
          0,
          0.168627,
          1
        ],
        "metallicFactor": 0,
        "roughnessFactor": 1
      }
    },
    {
      "doubleSided": false,
      "emissiveFactor": [
        0,
        0,
        0
      ],
      "name": "Tongue",
      "pbrMetallicRoughness": {
        "baseColorFactor": [
          0.94117600000000001,
          0.121569,
          0.121569,
          1
        ],
        "metallicFactor": 0,
        "roughnessFactor": 1
      }
    },
    {
      "doubleSided": false,
      "emissiveFactor": [
        0,
        0,
        0
      ],
      "name": "Mouth",
      "pbrMetallicRoughness": {
        "baseColorFactor": [
          0.40000000000000002,
          0,
          0,
          1
        ],
        "metallicFactor": 0,
        "roughnessFactor": 1
      }
    }
  ],
  "meshes": [
    {
      "primitives": [
        {
          "attributes": {
            "NORMAL": 1,
            "POSITION": 0,
            "TEXCOORD_0": 2
          },
          "indices": 3,
          "material": 0,
          "mode": 4
        }
      ]
    },
    {
      "primitives": [
        {
          "attributes": {
            "NORMAL": 5,
            "POSITION": 4,
            "TEXCOORD_0": 6
          },
          "indices": 7,
          "material": 1,
          "mode": 4
        }
      ]
    },
    {
      "primitives": [
        {
          "attributes": {
            "NORMAL": 9,
            "POSITION": 8,
            "TEXCOORD_0": 10
          },
          "indices": 11,
          "material": 2,
          "mode": 4
        }
      ]
    },
    {
      "primitives": [
        {
          "attributes": {
            "NORMAL": 13,
            "POSITION": 12,
            "TEXCOORD_0": 14
          },
          "indices": 15,
          "material": 3,
          "mode": 4
        }
      ]
    },
    {
      "primitives": [
        {
          "attributes": {
            "NORMAL": 17,
            "POSITION": 16,
            "TEXCOORD_0": 18
          },
          "indices": 19,
          "material": 4,
          "mode": 4
        }
      ]
    }
  ],
  "nodes": [
    {
      "children": [
        1
      ],
      "name": "RootNode (gltf orientation matrix)",
      "rotation": [
        -0.70710678118654746,
        -0,
        -0,
        0.70710678118654757
      ]
    },
    {
      "children": [
        2
      ],
      "name": "RootNode (model correction matrix)"
    },
    {
      "children": [
        3
      ],
      "name": "root"
    },
    {
      "children": [
        4
      ],
      "matrix": [
        1,
        0,
        0,
        0,
        0,
        2.2204460492503131e-16,
        1,
        0,
        0,
        -1,
        2.2204460492503131e-16,
        0,
        0,
        0,
        0,
        1
      ],
      "name": "GLTF_SceneRootNode"
    },
    {
      "children": [
        5
      ],
      "name": "Kirby.mtl.mtl.mtl_root_0"
    },
    {
      "children": [
        6,
        7,
        8,
        9,
        10
      ],
      "name": "default_1"
    },
    {
      "mesh": 0,
      "name": ""
    },
    {
      "mesh": 1,
      "name": ""
    },
    {
      "mesh": 2,
      "name": ""
    },
    {
      "mesh": 3,
      "name": ""
    },
    {
      "mesh": 4,
      "name": ""
    }
  ],
  "samplers": [
    {
      "magFilter": 9729,
      "minFilter": 9987,
      "wrapS": 10497,
      "wrapT": 10497
    }
  ],
  "scene": 0,
  "scenes": [
    {
      "name": "OSG_Scene",
      "nodes": [
        0
      ]
    }
  ],
  "textures": [
    {
      "sampler": 0,
      "source": 0
    }
  ]
}

